<svg width="25" height="37" viewBox="0 0 25 37" fill="none" xmlns="http://www.w3.org/2000/svg">
<path d="M12.7615 24.35C11.8949 24.35 11.2115 24.0667 10.7115 23.5C10.2449 22.9333 10.0115 22.1333 10.0115 21.1C10.0115 19.5333 10.3115 18.2333 10.9115 17.2C11.5115 16.1333 12.3449 15.05 13.4115 13.95C14.1782 13.1167 14.7449 12.4 15.1115 11.8C15.5115 11.2 15.7115 10.5333 15.7115 9.8C15.7115 9.06667 15.4449 8.48333 14.9115 8.05C14.3782 7.61667 13.6449 7.4 12.7115 7.4C11.9449 7.4 11.1782 7.55 10.4115 7.85C9.67819 8.11667 8.84486 8.51667 7.91152 9.05L6.71152 9.65C5.57819 10.2833 4.66152 10.6 3.96152 10.6C3.12819 10.6 2.41152 10.25 1.81152 9.55C1.24486 8.81667 0.961523 7.93333 0.961523 6.9C0.961523 6.2 1.07819 5.61666 1.31152 5.15C1.57819 4.68333 1.99486 4.23333 2.56152 3.8C4.06152 2.7 5.76152 1.85 7.66152 1.25C9.59486 0.616664 11.5282 0.299998 13.4615 0.299998C15.6282 0.299998 17.5615 0.683331 19.2615 1.45C20.9615 2.18333 22.2949 3.21667 23.2615 4.55C24.2282 5.85 24.7115 7.33333 24.7115 9C24.7115 10.2333 24.4449 11.3667 23.9115 12.4C23.4115 13.4333 22.7949 14.3167 22.0615 15.05C21.3282 15.7833 20.3782 16.6667 19.2115 17.7C18.1115 18.6 17.2615 19.3833 16.6615 20.05C16.0949 20.6833 15.7282 21.35 15.5615 22.05C15.4282 22.7833 15.0949 23.35 14.5615 23.75C14.0615 24.15 13.4615 24.35 12.7615 24.35ZM12.8615 36.3C11.4949 36.3 10.3449 35.8333 9.41152 34.9C8.51152 33.9667 8.06152 32.8167 8.06152 31.45C8.06152 30.0833 8.51152 28.9333 9.41152 28C10.3449 27.0667 11.4949 26.6 12.8615 26.6C14.2615 26.6 15.4115 27.0667 16.3115 28C17.2449 28.9333 17.7115 30.0833 17.7115 31.45C17.7115 32.8167 17.2449 33.9667 16.3115 34.9C15.4115 35.8333 14.2615 36.3 12.8615 36.3Z" fill="white"/>
</svg>
